<?xml version="1.0" encoding="iso-8859-1"?>
<!-- Generator: Adobe Illustrator 19.0.0, SVG Export Plug-In . SVG Version: 6.00 Build 0)  -->
<svg version="1.1" id="Layer_1" xmlns="http://www.w3.org/2000/svg" xmlns:xlink="http://www.w3.org/1999/xlink" x="0px" y="0px"
	 viewBox="0 0 512 512" style="enable-background:new 0 0 512 512;" xml:space="preserve">
<circle style="fill:#FFEDB5;" cx="256" cy="256" r="256"/>
<path style="fill:#FEE187;" d="M503.823,320.414L315.937,132.527l-79.169,70.661L101.352,351.354l161.351,160.559
	C378.877,508.928,475.798,428.544,503.823,320.414z"/>
<path style="fill:#FFC61B;" d="M256,363.129L256,363.129c-31.418,0-56.889-25.471-56.889-56.889V192.462
	c0-31.418,25.471-56.889,56.889-56.889l0,0c31.418,0,56.889,25.471,56.889,56.889V306.24
	C312.889,337.66,287.418,363.129,256,363.129z"/>
<path style="fill:#EAA22F;" d="M256,135.573L256,135.573c-0.193,0-0.383,0.012-0.576,0.016v227.526
	c0.193,0.002,0.383,0.014,0.574,0.014l0,0c31.418,0,56.889-25.471,56.889-56.889V192.462
	C312.889,161.044,287.418,135.573,256,135.573z"/>
<g>
	<path style="fill:#59595B;" d="M199.111,192.462v14.222h113.778v-14.222c0-4.911-0.622-9.676-1.793-14.222H200.904
		C199.733,182.786,199.111,187.551,199.111,192.462z"/>
	<rect x="199.111" y="235.123" style="fill:#59595B;" width="113.778" height="28.444"/>
	<path style="fill:#59595B;" d="M199.111,292.018v14.222c0,4.911,0.622,9.676,1.793,14.222h110.192
		c1.171-4.546,1.793-9.311,1.793-14.222v-14.222H199.111z"/>
</g>
<g>
	<path style="fill:#272525;" d="M312.889,192.462c0-4.911-0.622-9.676-1.793-14.222h-55.672v28.444h57.465V192.462z"/>
	<rect x="255.431" y="235.123" style="fill:#272525;" width="57.458" height="28.444"/>
	<path style="fill:#272525;" d="M255.424,292.018v28.444h55.672c1.171-4.546,1.793-9.311,1.793-14.222v-14.222H255.424z"/>
</g>
<path style="fill:#E09112;" d="M88.662,280.1c14.707-31.554,110.389-87.638,110.389-87.638s18.584,109.34,3.877,140.895
	s-52.207,45.211-83.761,30.505C87.612,349.155,73.957,311.655,88.662,280.1z"/>
<path style="fill:#FF5419;" d="M423.338,280.1c-14.707-31.554-110.389-87.638-110.389-87.638s-18.584,109.34-3.877,140.895
	c14.707,31.554,52.207,45.211,83.761,30.505C424.388,349.155,438.043,311.655,423.338,280.1z"/>
<path style="fill:#59595B;" d="M227.556,168.329c-1.103,0-2.205-0.421-3.048-1.262l-28.444-28.444c-1.684-1.684-1.684-4.411,0-6.094
	s4.411-1.684,6.094,0l28.444,28.444c1.684,1.684,1.684,4.411,0,6.094C229.76,167.907,228.657,168.329,227.556,168.329z"/>
<path style="fill:#272525;" d="M284.444,168.329c-1.103,0-2.205-0.421-3.048-1.262c-1.684-1.684-1.684-4.411,0-6.094l28.444-28.444
	c1.684-1.684,4.411-1.684,6.094,0s1.684,4.411,0,6.094l-28.444,28.444C286.651,167.907,285.548,168.329,284.444,168.329z"/>
<g>
</g>
<g>
</g>
<g>
</g>
<g>
</g>
<g>
</g>
<g>
</g>
<g>
</g>
<g>
</g>
<g>
</g>
<g>
</g>
<g>
</g>
<g>
</g>
<g>
</g>
<g>
</g>
<g>
</g>
</svg>
