<?xml version="1.0" encoding="iso-8859-1"?>
<!-- Generator: Adobe Illustrator 19.0.0, SVG Export Plug-In . SVG Version: 6.00 Build 0)  -->
<svg version="1.1" id="Layer_1" xmlns="http://www.w3.org/2000/svg" xmlns:xlink="http://www.w3.org/1999/xlink" x="0px" y="0px"
	 viewBox="0 0 511.996 511.996" style="enable-background:new 0 0 511.996 511.996;" xml:space="preserve">
<circle style="fill:#FFD630;" cx="255.998" cy="255.996" r="255.996"/>
<path style="fill:#F5BE18;" d="M511.316,274.709L401.26,164.653l-0.18,1.133L300.39,65.096l-15.976,41.467l5.776,22.554l-3.01-0.259
	l-63.762-63.762l-5.827,11.624c0.485,12.228,6.923,18.925,10.009,23.061l6.52,18.658l-13.878,45.934l-30.879-30.879l-28.916,43.762
	l42.934,42.934l-3.032,10.034l-12.224-0.266l-62.323-62.323l-8.398,69.102l-1.446,1.446l36.342,36.342l-25.427-0.295l-15.339,71.375
	l41.438,41.438l-6.157,20.384l104.507,104.507c1.561,0.029,3.122,0.061,4.69,0.061c135.09,0,245.733-104.639,255.314-237.292
	L511.316,274.709z"/>
<path style="fill:#4D4D4D;" d="M157.898,365.135l31.145-13.566c4.496-1.956,6.564-7.225,4.607-11.721l0,0
	c-1.96-4.496-7.229-6.564-11.717-4.611l-36.134,15.742c-0.73,0.313-1.388,0.715-1.981,1.191l-0.111,0.093l-0.058,0.04l-0.115,0.101
	c-1.809,1.529-3.01,3.78-3.143,6.326l-2.025,39.36c-0.255,4.888,3.546,9.1,8.434,9.344h0.004c4.891,0.255,9.096-3.539,9.348-8.43
	l1.741-33.868L157.898,365.135L157.898,365.135z M217.51,62.873c4.697,0,8.502,3.55,8.502,7.927c0,3.269-2.125,6.078-5.161,7.286
	c0.625,7.916,4.302,13.49,8.002,18.385c7.639-5.376,17.015-9.33,27.139-9.33c10.127,0,19.5,3.952,27.147,9.33
	c3.7-4.895,7.369-10.469,7.999-18.385c-3.032-1.209-5.161-4.02-5.161-7.286c0-4.377,3.812-7.927,8.502-7.927
	c4.694,0,8.502,3.55,8.502,7.927c0,3.179-2.007,5.92-4.902,7.182c-0.072,5.845-3.291,15.62-9.563,22.737
	c8.7,7.668,14.106,14.329,14.106,21.51c0,7.182,17.386,26.617-46.739,26.617s-46.52-19.435-46.52-26.617
	c0-7.182,5.405-13.846,14.102-21.51c-6.269-7.117-9.488-16.892-9.56-22.737C211.011,76.72,209,73.98,209,70.8
	c0-4.377,3.808-7.927,8.502-7.927C217.503,62.873,217.51,62.873,217.51,62.873z M131.672,288.868h36.994
	c5.646,0,10.264-4.614,10.264-10.26v-0.004c0-5.646-4.618-10.26-10.264-10.26h-45.427c-3.284,0-6.215,1.561-8.099,3.974
	c-1.73,1.593-2.91,3.816-3.151,6.373l-5.448,56.879c-0.536,5.632,3.603,10.844,9.215,11.595h0.007
	c5.61,0.748,10.641-3.24,11.178-8.872l4.733-49.419v-0.005H131.672z M380.325,288.868h-36.99c-5.65,0-10.264-4.614-10.264-10.26
	v-0.004c0-5.646,4.618-10.26,10.264-10.26h45.424c3.28,0,6.215,1.561,8.096,3.974c1.733,1.593,2.91,3.816,3.154,6.373l5.445,56.879
	c0.539,5.632-3.603,10.844-9.211,11.595h-0.007c-5.61,0.748-10.642-3.24-11.178-8.872l-4.733-49.419v-0.005H380.325z
	 M131.672,220.849h36.994c5.646,0,10.264,4.618,10.264,10.264v0.004c0,5.646-4.618,10.264-10.264,10.264h-45.427
	c-3.284,0-6.215-1.561-8.099-3.974c-1.73-1.593-2.91-3.816-3.151-6.373l-5.448-56.882c-0.536-5.628,3.603-10.844,9.215-11.591h0.007
	c5.61-0.748,10.641,3.24,11.178,8.872L131.672,220.849z M380.325,220.849h-36.99c-5.65,0-10.264,4.618-10.264,10.264v0.004
	c0,5.646,4.618,10.264,10.264,10.264h45.424c3.28,0,6.215-1.561,8.096-3.974c1.733-1.593,2.91-3.816,3.154-6.373l5.445-56.882
	c0.539-5.628-3.603-10.844-9.211-11.591h-0.007c-5.61-0.748-10.642,3.24-11.178,8.872L380.325,220.849z M180.282,163.607h22.744
	c4.528,0,8.229,3.701,8.229,8.229v0.004c0,4.525-3.704,8.225-8.229,8.225h-36.407c-4.532,0-8.236-3.701-8.236-8.225v-0.004
	c0-2.017,0.737-3.869,1.953-5.305l15.782-31.038c2.05-4.035,7.027-5.657,11.063-3.603l0.004,0.004
	c4.031,2.046,5.653,7.027,3.603,11.063l-10.501,20.651H180.282z M331.711,163.607H308.97c-4.528,0-8.229,3.701-8.229,8.229v0.004
	c0,4.525,3.701,8.225,8.229,8.225h36.414c4.525,0,8.225-3.701,8.225-8.225v-0.004c0-2.017-0.733-3.869-1.949-5.305l-15.782-31.038
	c-2.05-4.035-7.027-5.657-11.063-3.603l-0.004,0.004c-4.035,2.046-5.657,7.027-3.603,11.063L331.711,163.607z M354.103,365.135
	l-31.145-13.566c-4.496-1.956-6.564-7.225-4.607-11.721l0,0c1.96-4.496,7.228-6.564,11.717-4.611l36.134,15.742
	c0.726,0.313,1.388,0.715,1.978,1.191l0.115,0.093l0.054,0.04l0.115,0.101c1.809,1.529,3.01,3.78,3.143,6.326l2.025,39.36
	c0.255,4.888-3.546,9.1-8.434,9.344h-0.004c-4.891,0.255-9.096-3.539-9.348-8.43l-1.741-33.868L354.103,365.135L354.103,365.135z"/>
<path style="fill:#E84F4F;" d="M256.153,394.597c-126.003-6.103-121.848-185.287-46.513-256.331
	c13.336,8.164,33.901,10.422,46.25,10.577l0.262,245.751v0.003H256.153z"/>
<path style="fill:#C94545;" d="M256.153,394.597c126.003-6.103,121.32-185.287,45.981-256.331
	c-13.336,8.164-33.897,10.422-46.247,10.577l0.266,245.751L256.153,394.597L256.153,394.597z"/>
<circle style="fill:#00CC96;" cx="338.608" cy="351.834" r="75.616"/>
<path style="fill:#006775;" d="M323.102,425.848l-0.907-36.928c-0.022-1.007,0.036-1.989,0.162-2.956
	c-15.634-6.632-26.765-21.931-27.211-40.018c-0.417-16.928,8.649-31.897,22.367-39.791l0.874,35.537l42.579-1.047l-0.874-35.537
	c14.084,7.214,23.881,21.719,24.291,38.655c0.446,18.079-9.926,33.911-25.211,41.302c0.176,0.957,0.284,1.938,0.309,2.939
	l0.889,36.26c-12.131,3.636-24.966,4.151-37.27,1.586h0.002V425.848z"/>
<path style="fill:#004F59;" d="M342.67,427.339l-3.248-86.171l21.546-0.528l-0.874-35.537c14.084,7.214,23.877,21.722,24.291,38.655
	c0.449,18.076-9.923,33.908-25.214,41.298c0.176,0.953,0.288,1.942,0.313,2.946l0.889,36.26c-5.787,1.733-11.728,2.759-17.698,3.075
	L342.67,427.339z"/>
<g>
</g>
<g>
</g>
<g>
</g>
<g>
</g>
<g>
</g>
<g>
</g>
<g>
</g>
<g>
</g>
<g>
</g>
<g>
</g>
<g>
</g>
<g>
</g>
<g>
</g>
<g>
</g>
<g>
</g>
</svg>
