<?xml version="1.0" encoding="iso-8859-1"?>
<!-- Generator: Adobe Illustrator 19.0.0, SVG Export Plug-In . SVG Version: 6.00 Build 0)  -->
<svg version="1.1" id="Layer_1" xmlns="http://www.w3.org/2000/svg" xmlns:xlink="http://www.w3.org/1999/xlink" x="0px" y="0px"
	 viewBox="0 0 505 505" style="enable-background:new 0 0 505 505;" xml:space="preserve">
<circle style="fill:#FFD05B;" cx="252.5" cy="252.5" r="252.5"/>
<g>
	<path style="fill:#FFFFFF;" d="M271.5,120.7c0,0,0.1-0.3,0.3-0.7c0.2-0.5,0.5-1.1,0.9-1.9c0.8-1.6,2.1-3.7,3.7-6.1
		c1.7-2.4,3.8-5.1,6.4-7.8c1.3-1.3,2.7-2.6,4.1-3.8c1.5-1.2,3-2.4,4.6-3.5c0.8-0.5,1.6-1,2.5-1.5s1.7-0.9,2.5-1.3
		c1.7-0.8,3.4-1.6,5.1-2.1c1.7-0.6,3.4-1.1,4.9-1.4c0.8-0.2,1.6-0.3,2.3-0.5c0.8-0.1,1.5-0.2,2.2-0.3c1.4-0.1,2.7-0.3,3.8-0.3
		c1.1,0,2.1-0.1,2.9,0c1.6,0.1,2.5,0.1,2.5,0.1v0.2c0,0-0.9,0.1-2.5,0.3c-0.8,0.1-1.8,0.3-2.8,0.5c-1.1,0.2-2.3,0.5-3.6,0.8
		c-0.6,0.2-1.3,0.4-2,0.6s-1.4,0.5-2.1,0.8c-1.4,0.6-2.9,1.2-4.4,2s-2.9,1.7-4.3,2.7c-0.7,0.5-1.4,1-2.1,1.6s-1.3,1.1-2,1.7
		c-1.3,1.2-2.5,2.4-3.6,3.7c-1.1,1.3-2.2,2.6-3.1,3.9c-1.9,2.7-3.4,5.3-4.5,7.6c-1.1,2.3-1.9,4.3-2.3,5.7c-0.2,0.7-0.4,1.2-0.5,1.6
		c-0.1,0.2-0.1,0.3-0.1,0.4s0,0.1,0,0.1L271.5,120.7z"/>
	<path style="fill:#FFFFFF;" d="M224.5,123.8c0,0,0,0,0-0.1s0-0.2-0.1-0.4c-0.1-0.3-0.3-0.9-0.5-1.6c-0.5-1.4-1.2-3.4-2.3-5.7
		c-1.1-2.3-2.6-5-4.5-7.6c-0.9-1.3-2-2.7-3.1-3.9c-1.1-1.3-2.3-2.5-3.6-3.7c-0.6-0.6-1.3-1.1-2-1.7c-0.7-0.5-1.4-1.1-2.1-1.6
		c-1.4-1-2.9-1.9-4.3-2.7c-1.5-0.8-2.9-1.5-4.4-2c-0.7-0.3-1.4-0.6-2.1-0.8c-0.7-0.2-1.4-0.4-2-0.6c-1.3-0.3-2.5-0.7-3.6-0.8
		c-1.1-0.2-2-0.4-2.8-0.5c-1.6-0.2-2.5-0.3-2.5-0.3v-0.3c0,0,0.9,0,2.5-0.1c0.8-0.1,1.8,0,2.9,0c1.1,0,2.4,0.1,3.8,0.3
		c0.7,0.1,1.4,0.2,2.2,0.3c0.8,0.1,1.5,0.3,2.3,0.5c1.6,0.4,3.3,0.8,4.9,1.4c1.7,0.6,3.4,1.3,5.1,2.1c0.9,0.4,1.7,0.9,2.5,1.3
		c0.8,0.5,1.7,1,2.5,1.5c1.6,1.1,3.2,2.2,4.6,3.5c1.5,1.2,2.9,2.5,4.1,3.8c2.6,2.6,4.7,5.3,6.4,7.8c1.7,2.4,2.9,4.6,3.7,6.1
		c0.4,0.8,0.7,1.4,0.9,1.9s0.3,0.7,0.3,0.7L224.5,123.8z"/>
</g>
<g>
	<path style="fill:#324A5E;" d="M366.7,239.6h-37.3c-2.9,0-5.2-2.3-5.2-5.2s2.3-5.2,5.2-5.2h32.1v-32.7c0-2.9,2.3-5.2,5.2-5.2
		c2.9,0,5.2,2.3,5.2,5.2v37.9C371.9,237.3,369.6,239.6,366.7,239.6z"/>
	<path style="fill:#324A5E;" d="M175.7,239.6h-37.3c-2.9,0-5.2-2.3-5.2-5.2v-37.9c0-2.9,2.3-5.2,5.2-5.2s5.2,2.3,5.2,5.2v32.6h32.1
		c2.9,0,5.2,2.3,5.2,5.2C180.9,237.3,178.5,239.6,175.7,239.6z"/>
	<path style="fill:#324A5E;" d="M366.7,387.5c-2.9,0-5.2-2.3-5.2-5.2v-32.6h-32.1c-2.9,0-5.2-2.3-5.2-5.2c0-2.9,2.3-5.2,5.2-5.2
		h37.3c2.9,0,5.2,2.3,5.2,5.2v37.9C371.9,385.2,369.6,387.5,366.7,387.5z"/>
	<path style="fill:#324A5E;" d="M138.3,387.5c-2.9,0-5.2-2.3-5.2-5.2v-37.8c0-2.9,2.3-5.2,5.2-5.2h37.3c2.9,0,5.2,2.3,5.2,5.2
		c0,2.9-2.3,5.2-5.2,5.2h-32.1v32.6C143.5,385.2,141.2,387.5,138.3,387.5z"/>
</g>
<path style="fill:#F1543F;" d="M302.3,182.3c1.7-5.2,2.6-10.6,2.6-16.4c0-28.9-23.5-52.4-52.4-52.4s-52.4,23.5-52.4,52.4
	c0,5.7,0.9,11.2,2.6,16.4c14.6-10.7,31.6-16.9,49.8-16.9S287.6,171.6,302.3,182.3z"/>
<path style="fill:#FF7058;" d="M302.3,182.3c-14.6-10.7-31.6-16.9-49.8-16.9s-35.1,6.1-49.8,16.9c-29.5,21.7-49.4,62-49.4,108.2
	c0,69.1,44.4,125.1,99.2,125.1s99.2-56,99.2-125.1C351.7,244.3,331.8,204,302.3,182.3z"/>
<rect x="249.2" y="273.2" style="fill:#FFFFFF;" width="6.6" height="142.4"/>
<g>
</g>
<g>
</g>
<g>
</g>
<g>
</g>
<g>
</g>
<g>
</g>
<g>
</g>
<g>
</g>
<g>
</g>
<g>
</g>
<g>
</g>
<g>
</g>
<g>
</g>
<g>
</g>
<g>
</g>
</svg>
