<?xml version="1.0" encoding="iso-8859-1"?>
<!-- Generator: Adobe Illustrator 19.0.0, SVG Export Plug-In . SVG Version: 6.00 Build 0)  -->
<svg version="1.1" id="Layer_1" xmlns="http://www.w3.org/2000/svg" xmlns:xlink="http://www.w3.org/1999/xlink" x="0px" y="0px"
	 viewBox="0 0 512 512" style="enable-background:new 0 0 512 512;" xml:space="preserve">
<circle style="fill:#88C5CC;" cx="256" cy="256" r="256"/>
<path style="fill:#80B9BF;" d="M494.252,349.624c-0.096-0.736-0.34-1.448-0.82-2.024c-0.096-0.748-0.34-1.464-0.828-2.048
	c-0.096-0.744-0.34-1.46-0.82-2.044c-0.1-0.752-0.344-1.472-0.832-2.06c-0.1-0.748-0.344-1.464-0.828-2.048
	c-0.096-0.748-0.34-1.468-0.828-2.052c-0.1-0.748-0.344-1.464-0.828-2.048c-0.096-0.748-0.34-1.464-0.828-2.052
	c-0.096-0.748-0.34-1.464-0.828-2.048c-0.096-0.748-0.34-1.468-0.828-2.052c-0.096-0.748-0.34-1.464-0.828-2.048
	c-0.096-0.748-0.34-1.468-0.828-2.052c-0.096-0.748-0.34-1.464-0.828-2.048c-0.096-0.748-0.34-1.468-0.828-2.052
	c-0.096-0.748-0.34-1.468-0.828-2.052c-0.1-0.748-0.344-1.464-0.828-2.048c-0.096-0.748-0.34-1.468-0.828-2.052
	c-0.096-0.744-0.34-1.456-0.82-2.04c-0.1-0.752-0.344-1.472-0.832-2.06c-0.096-0.748-0.34-1.464-0.828-2.048
	c-0.096-0.748-0.34-1.468-0.828-2.052c-0.096-0.748-0.34-1.464-0.828-2.048c-0.096-0.748-0.34-1.464-0.828-2.052
	c-0.096-0.748-0.34-1.468-0.828-2.052c-0.096-0.748-0.34-1.464-0.828-2.048c-0.096-0.748-0.34-1.464-0.828-2.052
	c-0.096-0.748-0.34-1.464-0.828-2.048c-0.096-0.748-0.34-1.468-0.828-2.052c-0.096-0.748-0.34-1.464-0.828-2.048
	c-0.096-0.748-0.34-1.468-0.828-2.052c-0.096-0.748-0.34-1.464-0.828-2.048c-0.096-0.748-0.34-1.468-0.828-2.052
	c-0.096-0.748-0.34-1.468-0.828-2.052c-0.096-0.744-0.34-1.456-0.82-2.04c-0.096-0.752-0.344-1.472-0.832-2.06
	c-0.096-0.748-0.34-1.464-0.828-2.048c-0.096-0.748-0.34-1.468-0.828-2.052c-0.096-0.748-0.34-1.464-0.828-2.048
	c-0.096-0.748-0.34-1.468-0.828-2.052c-0.096-0.748-0.34-1.464-0.828-2.048c-0.096-0.748-0.34-1.468-0.828-2.052
	c-0.096-0.748-0.34-1.464-0.828-2.048c-0.096-0.748-0.34-1.464-0.824-2.048c-0.1-0.752-0.344-1.476-0.832-2.064
	c-0.1-0.744-0.344-1.456-0.828-2.04c-0.096-0.748-0.34-1.464-0.828-2.048c-0.096-0.748-0.34-1.464-0.828-2.048
	c-0.096-0.748-0.34-1.468-0.828-2.052c-0.096-0.744-0.34-1.456-0.82-2.04c-0.1-0.752-0.344-1.472-0.832-2.06
	c-0.096-0.748-0.34-1.464-0.828-2.048c-0.096-0.748-0.34-1.464-0.828-2.048c-0.096-0.748-0.34-1.464-0.828-2.048
	c-0.096-0.748-0.34-1.464-0.828-2.048c-0.096-0.748-0.34-1.464-0.828-2.048c-0.096-0.748-0.34-1.464-0.828-2.048
	c-0.096-0.748-0.34-1.464-0.828-2.048c-0.096-0.748-0.34-1.468-0.828-2.052c-0.096-0.748-0.34-1.464-0.828-2.048
	c-0.096-0.748-0.34-1.464-0.828-2.048c-0.096-0.748-0.34-1.464-0.828-2.048c-0.096-0.748-0.34-1.464-0.828-2.048
	c-0.096-0.748-0.34-1.464-0.828-2.048c-0.096-0.744-0.34-1.456-0.824-2.04c-0.096-0.748-0.34-1.472-0.828-2.056
	c-0.096-0.748-0.34-1.464-0.828-2.048c-0.096-0.748-0.34-1.464-0.828-2.048c-0.096-0.748-0.34-1.464-0.828-2.048
	c-0.096-0.748-0.34-1.468-0.828-2.052c-0.096-0.748-0.34-1.464-0.828-2.048c-0.096-0.748-0.34-1.464-0.828-2.048
	c-0.096-0.748-0.34-1.464-0.828-2.048c-0.096-0.748-0.34-1.464-0.828-2.048c-0.096-0.748-0.34-1.464-0.828-2.048
	c-0.096-0.748-0.34-1.464-0.828-2.048c-0.096-0.748-0.34-1.464-0.828-2.048c-0.096-0.748-0.34-1.464-0.828-2.048
	c-0.096-0.748-0.34-1.464-0.828-2.048c-0.096-0.744-0.34-1.46-0.82-2.044c-0.1-0.748-0.344-1.472-0.832-2.056
	c-0.096-0.748-0.34-1.464-0.828-2.048c-0.096-0.748-0.34-1.464-0.828-2.048c-0.096-0.748-0.34-1.464-0.828-2.048
	c-0.096-0.748-0.34-1.464-0.828-2.048c-0.096-0.748-0.34-1.464-0.828-2.048c-0.168-1.272-0.872-2.452-2.096-3.064
	c-0.98-0.484-2.06-0.532-3.024-0.22c-0.116-0.652-0.364-1.256-0.776-1.78c-0.084-0.752-0.356-1.456-0.828-2.052
	c-0.084-0.752-0.36-1.452-0.828-2.048c-0.084-0.752-0.36-1.452-0.828-2.048c-0.084-0.752-0.36-1.452-0.828-2.048
	c-0.084-0.752-0.36-1.452-0.828-2.048c-0.084-0.752-0.36-1.452-0.828-2.048c-0.084-0.752-0.36-1.452-0.828-2.048
	c-0.084-0.752-0.36-1.452-0.828-2.048c-0.084-0.752-0.36-1.452-0.828-2.048c-0.084-0.752-0.36-1.452-0.828-2.048
	c-0.084-0.752-0.356-1.448-0.824-2.044c-0.08-0.752-0.356-1.46-0.828-2.06c-0.084-0.752-0.36-1.452-0.828-2.048
	c-0.084-0.752-0.36-1.452-0.828-2.048c-0.084-0.752-0.36-1.452-0.828-2.048c-0.084-0.752-0.36-1.452-0.828-2.048
	c-0.084-0.752-0.36-1.452-0.828-2.048c-0.148-1.38-0.952-2.656-2.32-3.256c-2.016-0.888-4.376,0.04-5.26,2.064l-27.388,62.584
	l-15.644,6.952c-0.008-0.064-0.012-0.12-0.024-0.18c-0.108-0.66-0.412-1.22-0.784-1.72c-0.016-0.112-0.024-0.216-0.044-0.332
	c-0.108-0.66-0.412-1.22-0.784-1.72c-0.016-0.112-0.024-0.216-0.044-0.332c-0.108-0.66-0.412-1.22-0.784-1.72
	c-0.016-0.112-0.024-0.216-0.044-0.332c-0.108-0.66-0.412-1.22-0.784-1.716c-0.016-0.116-0.024-0.22-0.044-0.332
	c-0.108-0.66-0.412-1.22-0.784-1.716c-0.016-0.112-0.024-0.22-0.044-0.332c-0.108-0.66-0.412-1.22-0.784-1.72
	c-0.016-0.112-0.024-0.216-0.044-0.332c-0.108-0.66-0.412-1.22-0.784-1.716c-0.016-0.112-0.024-0.22-0.044-0.332
	c-0.108-0.66-0.412-1.22-0.784-1.72c-0.016-0.112-0.024-0.216-0.044-0.332c-0.108-0.66-0.412-1.22-0.784-1.716
	c-0.016-0.112-0.024-0.22-0.044-0.332c-0.108-0.66-0.412-1.22-0.784-1.72c-0.016-0.112-0.024-0.216-0.044-0.332
	c-0.108-0.66-0.412-1.22-0.784-1.716c-0.016-0.112-0.024-0.22-0.044-0.332c-0.108-0.66-0.412-1.22-0.784-1.72
	c-0.016-0.112-0.024-0.216-0.044-0.332c-0.108-0.656-0.408-1.216-0.78-1.712c-0.016-0.116-0.024-0.224-0.044-0.336
	c-0.108-0.66-0.412-1.22-0.784-1.716c-0.02-0.112-0.024-0.22-0.044-0.332c-0.108-0.66-0.412-1.22-0.784-1.72
	c-0.02-0.112-0.024-0.216-0.044-0.332c-0.108-0.66-0.412-1.22-0.784-1.716c-0.02-0.112-0.024-0.22-0.044-0.332
	c-0.108-0.66-0.412-1.22-0.784-1.72c-0.02-0.112-0.024-0.216-0.044-0.332c-0.108-0.66-0.412-1.22-0.784-1.716
	c-0.02-0.112-0.024-0.22-0.044-0.332c-0.108-0.66-0.412-1.22-0.784-1.72c-0.02-0.112-0.024-0.216-0.044-0.332
	c-0.108-0.66-0.412-1.22-0.784-1.716c-0.02-0.112-0.024-0.22-0.044-0.332c-0.108-0.66-0.412-1.22-0.784-1.72
	c-0.02-0.112-0.024-0.216-0.044-0.332c-0.108-0.66-0.412-1.22-0.784-1.72c-0.02-0.112-0.024-0.216-0.044-0.332
	c-0.108-0.66-0.412-1.22-0.784-1.72c-0.016-0.112-0.024-0.22-0.044-0.332c-0.108-0.66-0.412-1.22-0.784-1.72
	c-0.02-0.112-0.024-0.216-0.044-0.332c-0.108-0.66-0.412-1.22-0.784-1.716c-0.02-0.112-0.024-0.22-0.044-0.332
	c-0.108-0.66-0.412-1.22-0.784-1.72c-0.02-0.112-0.024-0.216-0.044-0.332c-0.108-0.66-0.412-1.22-0.784-1.716
	c-0.02-0.112-0.024-0.22-0.044-0.332c-0.108-0.656-0.408-1.216-0.78-1.712c-0.016-0.116-0.024-0.22-0.044-0.336
	c-0.108-0.66-0.412-1.22-0.784-1.716c-0.016-0.112-0.024-0.22-0.044-0.332c-0.108-0.66-0.412-1.22-0.784-1.72
	c-0.016-0.112-0.024-0.216-0.044-0.332c-0.108-0.66-0.412-1.22-0.784-1.716c-0.016-0.112-0.024-0.22-0.044-0.332
	c-0.108-0.66-0.412-1.22-0.784-1.716c-0.016-0.116-0.024-0.22-0.044-0.332c-0.108-0.66-0.412-1.22-0.784-1.72
	c-0.016-0.112-0.024-0.216-0.044-0.332c-0.108-0.66-0.412-1.22-0.784-1.716c-0.016-0.112-0.024-0.22-0.044-0.332
	c-0.108-0.66-0.412-1.22-0.784-1.72c-0.016-0.112-0.024-0.216-0.044-0.332c-0.108-0.66-0.412-1.22-0.784-1.716
	c-0.016-0.112-0.024-0.22-0.044-0.332c-0.108-0.66-0.412-1.22-0.784-1.72c-0.016-0.112-0.024-0.216-0.044-0.332
	c-0.108-0.66-0.412-1.22-0.784-1.716c-0.016-0.112-0.024-0.22-0.044-0.332c-0.108-0.66-0.412-1.22-0.784-1.72
	c-0.016-0.112-0.024-0.216-0.044-0.332c-0.108-0.66-0.412-1.22-0.784-1.716c-0.016-0.112-0.024-0.22-0.044-0.332
	c-0.108-0.66-0.412-1.22-0.784-1.72c-0.016-0.112-0.024-0.216-0.044-0.332c-0.108-0.66-0.412-1.22-0.784-1.716
	c-0.016-0.116-0.024-0.22-0.044-0.332c-0.108-0.656-0.408-1.216-0.78-1.712c-0.016-0.116-0.024-0.22-0.044-0.336
	c-0.108-0.66-0.412-1.22-0.784-1.72c-0.02-0.112-0.024-0.216-0.044-0.332c-0.108-0.66-0.412-1.22-0.784-1.716
	c-0.02-0.112-0.024-0.22-0.044-0.332c-0.108-0.66-0.412-1.22-0.784-1.72c-0.02-0.112-0.024-0.216-0.044-0.332
	c-0.108-0.66-0.412-1.22-0.784-1.716c-0.02-0.112-0.024-0.22-0.044-0.332c-0.108-0.66-0.412-1.22-0.784-1.72
	c-0.02-0.112-0.024-0.216-0.044-0.332c-0.108-0.66-0.412-1.22-0.784-1.716c-0.02-0.112-0.024-0.22-0.044-0.332
	c-0.364-2.176-2.412-3.66-4.6-3.288c-2.18,0.364-3.648,2.424-3.284,4.6c1.612,9.712,0.52,16.9-3.252,21.36
	c-1.412,1.664-3.312,2.9-5.508,3.868c-10.32-8.8-24.084-13.888-40.072-13.888c-2.04,0-4.036,0.1-6,0.26c0.008,0,0.016,0,0.024,0
	c-14.528,1.192-26.944,6.748-36.212,15.536c-2.248-0.168-4.224-0.592-6.064-1.136c-0.096-0.164-0.192-0.316-0.308-0.46
	c-0.088-0.764-0.356-1.464-0.828-2.048c-0.088-0.764-0.356-1.464-0.828-2.048c-0.088-0.764-0.356-1.464-0.828-2.048
	c-0.088-0.764-0.356-1.468-0.828-2.052c-0.088-0.764-0.356-1.464-0.828-2.048c-0.088-0.764-0.356-1.464-0.828-2.048
	c-0.088-0.768-0.356-1.468-0.828-2.052c-0.088-0.764-0.356-1.464-0.828-2.048c-0.088-0.764-0.356-1.464-0.828-2.048
	c-0.088-0.764-0.356-1.464-0.828-2.048c-0.088-0.764-0.356-1.464-0.828-2.048c-0.088-0.764-0.356-1.468-0.828-2.052
	c-0.088-0.764-0.356-1.464-0.828-2.048c-0.196-1.728-1.452-3.204-3.252-3.504c-2.192-0.372-4.24,1.112-4.604,3.288
	c-1.552,9.312-0.896,16.972,1.912,22.908c0.256,0.696,0.516,1.392,0.828,2.048c0.256,0.692,0.512,1.384,0.824,2.036
	c0.256,0.7,0.52,1.4,0.832,2.06c0.256,0.696,0.516,1.392,0.828,2.048c0.256,0.696,0.516,1.392,0.828,2.048
	c0.256,0.696,0.516,1.392,0.828,2.048c0.256,0.696,0.516,1.388,0.828,2.044c0.256,0.7,0.52,1.396,0.832,2.056
	c0.256,0.696,0.516,1.392,0.828,2.048c0.256,0.692,0.512,1.384,0.824,2.036c0.256,0.7,0.52,1.4,0.832,2.06
	c0.256,0.696,0.516,1.392,0.828,2.048c0.032,0.084,0.064,0.168,0.096,0.252c-2.012,4.936-3.424,10.272-4.14,15.976
	c-8.104,4.164-15.02,9.464-20.628,15.952c-5.648,6.54-9.984,14.132-13.084,22.784l-19.868-8.828l-27.38-62.584
	c-0.884-2.024-3.244-2.952-5.268-2.064c-2.024,0.888-2.948,3.248-2.06,5.264l0.76,1.74c0.036,0.1,0.024,0.208,0.068,0.312l0.76,1.74
	c0.036,0.1,0.024,0.208,0.068,0.312l0.756,1.728c0.036,0.104,0.024,0.216,0.072,0.32l0.76,1.74c0.036,0.1,0.024,0.208,0.068,0.312
	l0.76,1.74c0.036,0.1,0.024,0.208,0.068,0.312l0.76,1.74c0.036,0.1,0.024,0.208,0.068,0.312l0.76,1.74
	c0.036,0.1,0.024,0.208,0.068,0.312l0.76,1.736c0.036,0.104,0.024,0.212,0.068,0.316l0.76,1.74c0.036,0.1,0.024,0.208,0.068,0.312
	l0.76,1.74c0.036,0.1,0.024,0.208,0.068,0.312l0.756,1.728c0.036,0.104,0.024,0.216,0.072,0.32l0.76,1.74
	c0.036,0.1,0.024,0.208,0.068,0.312l0.76,1.74c0.036,0.1,0.024,0.208,0.068,0.312l0.76,1.74c0.036,0.1,0.024,0.208,0.068,0.312
	l0.76,1.74c0.036,0.1,0.024,0.208,0.068,0.312l0.76,1.74c0.036,0.1,0.024,0.208,0.068,0.312l0.76,1.74
	c0.036,0.1,0.024,0.208,0.068,0.312l0.756,1.728c0.036,0.108,0.024,0.22,0.072,0.324l0.76,1.74c0.036,0.1,0.024,0.208,0.068,0.312
	l0.76,1.74c0.036,0.1,0.024,0.208,0.068,0.312l0.76,1.74c0.036,0.1,0.024,0.208,0.068,0.312l0.76,1.74
	c0.036,0.1,0.024,0.208,0.068,0.312l0.76,1.74c0.036,0.1,0.024,0.208,0.068,0.312l0.76,1.74c0.036,0.1,0.024,0.208,0.068,0.312
	l0.76,1.736c0.036,0.104,0.024,0.212,0.068,0.312l0.756,1.728c0.036,0.104,0.024,0.216,0.072,0.32l0.76,1.74
	c0.036,0.1,0.024,0.208,0.068,0.312l0.76,1.74c0.036,0.1,0.024,0.208,0.068,0.312l0.76,1.736c0.036,0.104,0.024,0.212,0.068,0.316
	l0.76,1.74c0.036,0.1,0.024,0.208,0.068,0.312l0.76,1.74c0.036,0.1,0.024,0.208,0.068,0.312l0.76,1.736
	c0.036,0.104,0.024,0.212,0.068,0.312l0.76,1.736c0.036,0.104,0.024,0.212,0.068,0.312l0.756,1.728
	c0.036,0.104,0.024,0.216,0.072,0.32l0.76,1.74c0.036,0.1,0.024,0.208,0.068,0.312l0.76,1.74c0.036,0.1,0.024,0.208,0.068,0.312
	l0.76,1.74c0.036,0.1,0.024,0.208,0.068,0.312l0.76,1.74c0.036,0.1,0.024,0.208,0.068,0.312l0.76,1.736
	c0.036,0.104,0.024,0.212,0.068,0.316l0.76,1.736c0.036,0.104,0.024,0.212,0.068,0.312l0.756,1.728
	c0.036,0.104,0.024,0.216,0.072,0.32l0.76,1.74c0.036,0.1,0.024,0.208,0.068,0.312l0.76,1.74c0.036,0.1,0.024,0.208,0.068,0.312
	l0.76,1.74c0.036,0.1,0.024,0.208,0.068,0.312l0.76,1.74c0.036,0.1,0.024,0.208,0.068,0.312l0.76,1.74
	c0.036,0.1,0.024,0.208,0.068,0.312l0.76,1.736c0.036,0.104,0.024,0.212,0.068,0.312l0.76,1.736
	c0.036,0.104,0.024,0.212,0.068,0.312l0.024,0.052l-21.624-0.004l-30.896-61.788c-0.988-1.976-3.388-2.764-5.368-1.784
	c-1.976,0.984-2.776,3.392-1.788,5.368l0.596,1.192c0.072,0.288,0.092,0.58,0.232,0.856l0.596,1.192
	c0.072,0.288,0.092,0.58,0.232,0.856l0.592,1.184c0.072,0.292,0.096,0.584,0.236,0.864l0.596,1.192
	c0.072,0.288,0.096,0.58,0.232,0.856l0.596,1.192c0.072,0.288,0.096,0.58,0.232,0.856l0.596,1.192
	c0.072,0.288,0.096,0.58,0.232,0.856l0.596,1.192c0.072,0.288,0.096,0.58,0.232,0.856l0.596,1.192
	c0.072,0.288,0.092,0.584,0.232,0.86l0.596,1.192c0.072,0.288,0.096,0.58,0.232,0.856l0.596,1.192
	c0.072,0.288,0.096,0.58,0.232,0.856l0.592,1.184c0.072,0.292,0.096,0.588,0.236,0.864l0.596,1.192
	c0.072,0.288,0.092,0.58,0.232,0.856l0.596,1.192c0.072,0.288,0.092,0.58,0.232,0.856l0.596,1.192
	c0.072,0.288,0.092,0.58,0.232,0.856l0.596,1.192c0.072,0.288,0.092,0.58,0.232,0.856l0.596,1.192
	c0.072,0.288,0.092,0.58,0.232,0.856l0.596,1.192c0.072,0.288,0.092,0.58,0.232,0.856l0.592,1.18
	c0.068,0.292,0.092,0.588,0.236,0.868l0.596,1.192c0.072,0.288,0.096,0.58,0.232,0.856l0.596,1.192
	c0.072,0.288,0.096,0.58,0.232,0.856l0.596,1.192c0.072,0.288,0.096,0.58,0.232,0.856l0.596,1.192
	c0.072,0.288,0.096,0.58,0.232,0.856l0.596,1.192c0.072,0.288,0.096,0.58,0.232,0.856l0.596,1.192
	c0.072,0.288,0.096,0.58,0.232,0.856l0.592,1.184c0.072,0.292,0.096,0.584,0.236,0.864l0.596,1.192
	c0.072,0.288,0.092,0.58,0.232,0.856l0.596,1.192c0.072,0.288,0.092,0.584,0.232,0.86l0.596,1.192
	c0.072,0.288,0.092,0.58,0.232,0.856l0.596,1.192c0.072,0.288,0.092,0.58,0.232,0.856l0.596,1.192
	c0.072,0.288,0.092,0.58,0.232,0.856l0.596,1.192c0.072,0.288,0.092,0.58,0.232,0.856l0.592,1.184
	c0.072,0.292,0.096,0.584,0.236,0.864l0.596,1.192c0.072,0.288,0.096,0.58,0.232,0.856l0.596,1.192
	c0.072,0.288,0.096,0.58,0.232,0.856l0.596,1.192c0.072,0.288,0.096,0.58,0.232,0.856l0.596,1.192
	c0.072,0.288,0.096,0.58,0.232,0.856l0.596,1.192c0.072,0.288,0.092,0.584,0.232,0.86l0.596,1.192
	c0.068,0.288,0.092,0.58,0.232,0.856l0.592,1.184c0.072,0.292,0.096,0.584,0.236,0.864l0.596,1.192
	c0.072,0.284,0.092,0.58,0.232,0.856l0.596,1.192c0.072,0.288,0.092,0.584,0.232,0.86l0.596,1.196
	c0.072,0.284,0.092,0.58,0.232,0.852l0.596,1.192c0.072,0.288,0.092,0.584,0.232,0.86l0.596,1.196
	c0.072,0.284,0.092,0.58,0.232,0.852l0.596,1.192c0.072,0.288,0.092,0.584,0.232,0.86l0.596,1.196
	c0.072,0.284,0.092,0.58,0.232,0.852l0.592,1.184c0.068,0.288,0.092,0.584,0.236,0.868l0.08,0.156l-4.94,2.06
	c-0.968,0.396-1.74,1.172-2.148,2.136l-32,76c-0.584,1.388-0.276,2.888,0.588,3.992c0.076,0.752,0.36,1.456,0.828,2.052
	c0.076,0.752,0.36,1.452,0.828,2.048c0.076,0.756,0.36,1.46,0.832,2.06c0.08,0.752,0.36,1.448,0.828,2.044
	c0.076,0.756,0.36,1.456,0.832,2.056c0.08,0.752,0.36,1.448,0.828,2.044c0.076,0.756,0.36,1.456,0.832,2.056
	c0.08,0.752,0.36,1.448,0.828,2.044c0.076,0.756,0.36,1.456,0.832,2.056c0.076,0.752,0.36,1.444,0.824,2.04
	c0.076,0.756,0.36,1.46,0.832,2.06c0.076,0.752,0.36,1.448,0.828,2.044c0.076,0.756,0.36,1.456,0.828,2.052
	c0.076,0.756,0.36,1.456,0.832,2.056c0.076,0.752,0.36,1.448,0.828,2.044c0.076,0.756,0.36,1.456,0.832,2.056
	c0.076,0.752,0.36,1.444,0.824,2.04c0.076,0.756,0.36,1.46,0.832,2.06c0.08,0.752,0.36,1.448,0.828,2.044
	c0.076,0.756,0.36,1.456,0.832,2.056c0.08,0.752,0.36,1.448,0.828,2.044c0.076,0.756,0.36,1.456,0.828,2.052
	c0.076,0.756,0.36,1.456,0.832,2.056c0.076,0.752,0.36,1.444,0.824,2.04c0.076,0.756,0.36,1.46,0.832,2.06
	c0.076,0.752,0.36,1.448,0.828,2.044c0.076,0.756,0.36,1.456,0.832,2.056c0.076,0.752,0.36,1.448,0.828,2.044
	c0.076,0.756,0.36,1.456,0.832,2.056c0.076,0.752,0.36,1.448,0.828,2.044c0.076,0.752,0.36,1.452,0.828,2.048
	c0.076,0.756,0.36,1.46,0.832,2.06c0.08,0.752,0.36,1.448,0.828,2.044c0.076,0.756,0.36,1.456,0.832,2.056
	c0.08,0.752,0.36,1.448,0.828,2.044c0.076,0.756,0.36,1.456,0.832,2.056c0.08,0.752,0.36,1.448,0.828,2.044
	c0.076,0.752,0.36,1.452,0.828,2.052c0.08,0.752,0.36,1.452,0.828,2.048c0.076,0.756,0.36,1.456,0.828,2.052
	c0.076,0.756,0.36,1.456,0.832,2.056c0.076,0.752,0.36,1.448,0.828,2.044c0.076,0.756,0.36,1.456,0.832,2.056
	c0.076,0.752,0.36,1.448,0.828,2.044c0.076,0.756,0.36,1.456,0.832,2.056c0.076,0.752,0.36,1.444,0.824,2.04
	c0.076,0.756,0.36,1.46,0.832,2.06c0.08,0.752,0.36,1.448,0.828,2.044c0.076,0.756,0.36,1.456,0.832,2.056
	c0.08,0.752,0.36,1.448,0.828,2.044c0.076,0.756,0.36,1.456,0.828,2.052c0.076,0.756,0.36,1.456,0.832,2.056
	c0.076,0.752,0.36,1.444,0.824,2.04c0.076,0.756,0.36,1.46,0.832,2.06c0.076,0.752,0.36,1.448,0.828,2.044
	c0.076,0.756,0.36,1.456,0.832,2.056c0.076,0.752,0.36,1.448,0.828,2.044c0.076,0.756,0.36,1.456,0.832,2.056
	c0.076,0.752,0.36,1.448,0.828,2.044c0.076,0.752,0.36,1.452,0.828,2.048c0.076,0.756,0.36,1.46,0.832,2.06
	c0.02,0.176,0.084,0.34,0.128,0.512C174.48,501.84,214.044,512,256,512C364.324,512,456.868,444.68,494.252,349.624z"/>
<g>
	<path style="fill:#242424;" d="M216.772,140c-10.244,0-17.944-2.964-22.9-8.812c-5.372-6.34-7.072-15.708-5.048-27.844
		c0.364-2.176,2.412-3.66,4.604-3.288c2.176,0.364,3.652,2.424,3.288,4.6c-1.616,9.712-0.52,16.9,3.26,21.36
		c3.364,3.972,9.012,5.984,16.796,5.984c2.208,0,4,1.788,4,4S218.98,140,216.772,140z"/>
	<path style="fill:#242424;" d="M284.772,140c10.244,0,17.944-2.964,22.9-8.812c5.376-6.34,7.072-15.708,5.048-27.844
		c-0.364-2.176-2.412-3.66-4.6-3.288c-2.18,0.364-3.648,2.424-3.284,4.6c1.612,9.712,0.52,16.9-3.252,21.36
		c-3.38,3.972-9.028,5.984-16.812,5.984c-2.212,0-4,1.788-4,4S282.564,140,284.772,140z"/>
</g>
<path style="fill:#E78244;" d="M315.988,175.984h-19.996c0-24.292-79.984-24.292-79.984,0h-19.996
	c0-35.324,24.664-59.988,59.988-59.988S315.988,140.66,315.988,175.984z"/>
<path style="fill:#E79F74;" d="M210.136,164.352c-0.368,0-0.744-0.052-1.116-0.156c-2.12-0.616-3.344-2.836-2.728-4.952
	c6.296-21.744,25.34-35.248,49.708-35.248c2.208,0,4,1.788,4,4c0,2.212-1.792,4-4,4c-20.972,0-36.68,11.016-42.024,29.468
	C213.472,163.216,211.872,164.352,210.136,164.352z"/>
<path style="fill:#D97A40;" d="M256,115.996c-2.04,0-4.036,0.1-6,0.26c32.084,2.636,53.988,26.436,53.988,59.728h12
	C315.988,140.66,291.328,115.996,256,115.996z"/>
<g>
	<path style="fill:#242424;" d="M336,220c-1.532,0-2.996-0.884-3.656-2.376c-0.9-2.02,0.012-4.384,2.028-5.28l34.584-15.368
		l27.388-62.584c0.888-2.024,3.248-2.952,5.26-2.064c2.032,0.888,2.952,3.248,2.068,5.264l-28,64
		c-0.404,0.916-1.128,1.644-2.04,2.056l-36,16C337.092,219.892,336.548,220,336,220z M340,236c-2.208,0-4,1.788-4,4s1.792,4,4,4h48
		c1.516,0,2.9-0.856,3.58-2.212l32-64c0.992-1.976,0.188-4.384-1.78-5.368c-1.98-0.98-4.384-0.192-5.376,1.784l-30.896,61.788
		L340,236L340,236z M423.688,354.444l-32-76c-0.408-0.964-1.18-1.744-2.148-2.136l-48-20c-2.044-0.852-4.384,0.116-5.232,2.152
		c-0.848,2.04,0.112,4.384,2.152,5.232l46.484,19.372l31.368,74.492c0.64,1.528,2.124,2.444,3.688,2.444
		c0.516,0,1.048-0.1,1.556-0.312C423.584,358.828,424.548,356.484,423.688,354.444z M378.828,321.172l-36-36
		c-1.564-1.564-4.092-1.564-5.656,0s-1.564,4.092,0,5.656l35.116,35.116l15.772,86.76c0.352,1.932,2.04,3.284,3.928,3.284
		c0.244,0,0.48-0.02,0.728-0.072c2.172-0.4,3.608-2.476,3.22-4.648l-16-88C379.788,322.484,379.408,321.752,378.828,321.172z"/>
	<path style="fill:#242424;" d="M176,220c1.532,0,2.996-0.884,3.656-2.376c0.9-2.02-0.012-4.384-2.028-5.28l-34.584-15.368
		l-27.38-62.584c-0.884-2.024-3.244-2.952-5.268-2.064c-2.024,0.888-2.948,3.248-2.06,5.264l28,64c0.4,0.916,1.128,1.644,2.04,2.056
		l36,16C174.908,219.892,175.456,220,176,220z M172,236c2.208,0,4,1.788,4,4s-1.792,4-4,4h-48c-1.516,0-2.9-0.856-3.58-2.212l-32-64
		c-0.988-1.976-0.188-4.384,1.788-5.368c1.98-0.98,4.38-0.192,5.368,1.784l30.896,61.788L172,236L172,236z M88.316,354.444l32-76
		c0.408-0.964,1.18-1.744,2.148-2.136l48-20c2.044-0.852,4.384,0.116,5.232,2.152c0.848,2.04-0.112,4.384-2.152,5.232
		l-46.488,19.372l-31.364,74.492c-0.644,1.528-2.128,2.444-3.688,2.444c-0.516,0-1.044-0.1-1.552-0.312
		C88.416,358.828,87.46,356.484,88.316,354.444z M133.172,321.172l36-36c1.564-1.564,4.092-1.564,5.656,0s1.564,4.092,0,5.656
		l-35.116,35.116l-15.776,86.76c-0.352,1.932-2.036,3.284-3.932,3.284c-0.236,0-0.48-0.02-0.72-0.072
		c-2.172-0.4-3.616-2.476-3.22-4.648l16-88C132.212,322.484,132.596,321.752,133.172,321.172z"/>
</g>
<path style="fill:#CC803D;" d="M257.916,416L257.916,416c-0.644,0-1.268-0.02-1.916-0.04c-42.16,1.812-85.032-62.228-96.544-144.548
	c-5.836-39.816-0.428-68.752,16.54-88.396c16.352-18.92,43.556-27.976,80.256-27.04c1.308-0.04,3.116-0.072,4.904-0.072
	c34.108,0,59.304,9.116,74.848,27.112c16.968,19.644,22.38,48.58,16.544,88.44C341.2,352.496,299.636,416,257.916,416z"/>
<path style="fill:#E69045;" d="M206.776,349.592c-1.452,0-2.848-0.788-3.56-2.172c-11.616-22.544-19.9-49.776-23.956-78.772
	c-4.96-33.824-1.08-57.564,11.868-72.548c11.572-13.396,31.76-20.18,60.016-20.18c2.208,0,4,1.784,4,4c0,2.212-1.792,4-4,4
	c-25.828,0-43.984,5.86-53.964,17.412c-11.336,13.12-14.612,34.768-10.004,66.18c3.936,28.144,11.94,54.5,23.148,76.252
	c1.012,1.96,0.244,4.376-1.724,5.388C208.02,349.452,207.396,349.592,206.776,349.592z"/>
<path style="fill:#B37035;" d="M336.004,183.036c-15.544-17.996-40.74-27.108-74.848-27.108c-1.788,0-3.592,0.028-4.904,0.068
	c-2.316-0.06-4.592-0.08-6.832-0.06c33.98,0.052,59.08,9.152,74.584,27.1c16.968,19.644,22.38,48.58,16.544,88.44
	c-10.952,78.22-50.08,140.092-90.312,144.28c1.92,0.188,3.844,0.276,5.764,0.204c0.644,0.02,1.268,0.04,1.916,0.04
	c41.72,0,83.284-63.504,94.632-144.524C358.384,231.608,352.976,202.68,336.004,183.036z"/>
<g>
</g>
<g>
</g>
<g>
</g>
<g>
</g>
<g>
</g>
<g>
</g>
<g>
</g>
<g>
</g>
<g>
</g>
<g>
</g>
<g>
</g>
<g>
</g>
<g>
</g>
<g>
</g>
<g>
</g>
</svg>
