<?xml version="1.0" encoding="iso-8859-1"?>
<!-- Generator: Adobe Illustrator 19.0.0, SVG Export Plug-In . SVG Version: 6.00 Build 0)  -->
<svg version="1.1" id="Layer_1" xmlns="http://www.w3.org/2000/svg" xmlns:xlink="http://www.w3.org/1999/xlink" x="0px" y="0px"
	 viewBox="0 0 473.935 473.935" style="enable-background:new 0 0 473.935 473.935;" xml:space="preserve">
<circle style="fill:#357180;" cx="236.967" cy="236.967" r="236.967"/>
<path style="fill:#F48C92;" d="M165.192,399.847c45.796-15.267,61.062-49.616,68.695-103.041c0,0-41.979,9.542-76.325,38.162
	S119.4,415.11,165.192,399.847z"/>
<path style="fill:#E97E88;" d="M170.016,385.954c33.107-11.035,44.142-35.869,49.657-74.488c0,0-30.346,6.896-55.176,27.588
	C139.67,359.747,136.912,396.992,170.016,385.954z"/>
<g>
	<path style="fill:#F4C6C8;" d="M245.207,296.806c0,0,121.021,42.174,167.92-62.971c5.384-12.078,19.083-64.875,1.908-101.133
		c0,0-9.542-49.612-76.325,19.083C338.707,151.786,262.382,224.29,245.207,296.806z"/>
	<path style="fill:#F4C6C8;" d="M234.449,296.806c0,0-121.021,42.174-167.92-62.971c-5.384-12.078-19.083-64.875-1.908-101.133
		c0,0,9.542-49.612,76.325,19.083C140.949,151.786,217.274,224.29,234.449,296.806z"/>
</g>
<path style="fill:#F3CED1;" d="M263.643,287.534c0,0,96.89,25.272,137.612-59.079c0,0,14.544-49.448,1.456-77.081
	c0,0-7.274-37.811-58.174,14.544C344.533,165.918,276.731,232.268,263.643,287.534z"/>
<path style="fill:#F48C92;" d="M313.902,399.847c-45.796-15.267-61.062-49.616-68.695-103.041c0,0,41.979,9.542,76.325,38.162
	S359.698,415.11,313.902,399.847z"/>
<path style="fill:#57564E;" d="M250.109,339.736c0,4.748-5.871,27.674-10.612,27.674l0,0c-4.741,0-10.612-22.926-10.612-27.674
	l6.44-64.276l-4.415-15.865c0-4.745,3.847-22.417,8.587-22.417l0,0c4.741,0,8.587,17.676,8.587,22.417l-4.415,15.51L250.109,339.736
	z"/>
<path style="fill:#E97E88;" d="M307.433,385.954c-33.107-11.035-44.142-35.869-49.657-74.488c0,0,30.346,6.896,55.176,27.588
	C337.779,359.747,340.54,396.992,307.433,385.954z"/>
<path style="fill:#F3CED1;" d="M216.403,288.469c0,0-98.484,24.337-139.206-60.015c0,0-14.544-49.448-1.456-77.081
	c0,0,7.274-37.811,58.174,14.544C133.915,165.918,203.314,233.203,216.403,288.469z"/>
<g>
</g>
<g>
</g>
<g>
</g>
<g>
</g>
<g>
</g>
<g>
</g>
<g>
</g>
<g>
</g>
<g>
</g>
<g>
</g>
<g>
</g>
<g>
</g>
<g>
</g>
<g>
</g>
<g>
</g>
</svg>
