<?xml version="1.0" encoding="iso-8859-1"?>
<!-- Generator: Adobe Illustrator 19.0.0, SVG Export Plug-In . SVG Version: 6.00 Build 0)  -->
<svg version="1.1" id="Layer_1" xmlns="http://www.w3.org/2000/svg" xmlns:xlink="http://www.w3.org/1999/xlink" x="0px" y="0px"
	 viewBox="0 0 512 512" style="enable-background:new 0 0 512 512;" xml:space="preserve">
<circle style="fill:#F2CF61;" cx="256" cy="256" r="256"/>
<path style="fill:#E6C45C;" d="M473.336,391.252c-0.14-0.344-0.212-0.712-0.416-1.024c-0.14-0.728-0.416-1.416-0.828-2.048
	c-0.14-0.728-0.416-1.416-0.828-2.056c-0.148-0.728-0.42-1.416-0.828-2.048c-0.144-0.732-0.42-1.416-0.828-2.056
	c-0.144-0.728-0.42-1.416-0.836-2.056c-0.14-0.728-0.416-1.416-0.82-2.04c-0.144-0.74-0.42-1.42-0.836-2.064
	c-0.14-0.728-0.416-1.416-0.824-2.048c-0.144-0.728-0.424-1.416-0.832-2.056c-0.144-0.732-0.42-1.416-0.828-2.048
	c-0.144-0.736-0.424-1.416-0.832-2.056c-0.144-0.728-0.416-1.416-0.828-2.048c-0.144-0.736-0.416-1.416-0.828-2.048
	c-0.144-0.74-0.416-1.42-0.832-2.064c-0.144-0.728-0.42-1.416-0.828-2.048c-0.144-0.728-0.42-1.416-0.832-2.056
	c-0.144-0.732-0.416-1.416-0.828-2.052c-0.144-0.732-0.416-1.416-0.832-2.052c-0.144-0.728-0.42-1.416-0.828-2.048
	c-0.144-0.736-0.42-1.416-0.832-2.064c-0.144-0.724-0.416-1.408-0.824-2.04c-0.144-0.736-0.42-1.416-0.832-2.056
	c-0.144-0.732-0.416-1.416-0.828-2.048c-0.144-0.736-0.416-1.416-0.828-2.06c-0.144-0.732-0.424-1.416-0.832-2.052
	c-0.144-0.728-0.42-1.416-0.828-2.048c-0.14-0.736-0.42-1.416-0.832-2.064c-0.144-0.728-0.416-1.408-0.824-2.04
	c-0.14-0.736-0.42-1.416-0.832-2.056c-0.144-0.732-0.416-1.416-0.828-2.052c-0.144-0.732-0.416-1.416-0.832-2.06
	c-0.14-0.728-0.42-1.416-0.828-2.048c-0.14-0.728-0.416-1.416-0.828-2.052c-0.14-0.732-0.416-1.416-0.828-2.06
	c-0.148-0.728-0.416-1.408-0.828-2.04c-0.14-0.736-0.416-1.416-0.828-2.06c-0.148-0.732-0.416-1.416-0.828-2.048
	c-0.148-0.732-0.42-1.416-0.836-2.06c-0.14-0.728-0.416-1.416-0.828-2.048c-0.14-0.736-0.416-1.416-0.828-2.052
	c-0.148-0.732-0.416-1.416-0.828-2.052c-0.148-0.728-0.416-1.416-0.828-2.048c-0.148-0.736-0.416-1.416-0.836-2.06
	c-0.14-0.732-0.416-1.416-0.828-2.048c-0.14-0.732-0.416-1.416-0.828-2.06c-0.14-0.728-0.416-1.416-0.828-2.048
	c-0.14-0.736-0.416-1.416-0.836-2.052c-0.136-0.732-0.416-1.416-0.828-2.052c-0.136-0.732-0.416-1.416-0.828-2.06
	c-0.14-0.724-0.416-1.408-0.82-2.04c-0.144-0.732-0.416-1.416-0.828-2.06c-0.144-0.732-0.424-1.416-0.832-2.056
	c-0.144-0.728-0.42-1.416-0.828-2.048c-0.144-0.736-0.416-1.416-0.832-2.056c-0.144-0.728-0.416-1.416-0.828-2.048
	c-0.144-0.732-0.42-1.416-0.832-2.06c-0.144-0.732-0.416-1.412-0.824-2.04c-0.144-0.74-0.416-1.416-0.832-2.06
	c-0.144-0.732-0.416-1.416-0.828-2.052c-0.144-0.728-0.416-1.416-0.828-2.052c-0.144-0.736-0.416-1.416-0.832-2.056
	c-0.144-0.732-0.416-1.416-0.828-2.052c-0.144-0.728-0.416-1.416-0.832-2.056c-0.14-0.732-0.416-1.412-0.824-2.044
	c-0.144-0.736-0.416-1.416-0.832-2.056c-0.14-0.728-0.416-1.416-0.828-2.048c-0.136-0.728-0.416-1.416-0.832-2.056
	c-0.14-0.728-0.416-1.416-0.824-2.048c-0.144-0.732-0.424-1.416-0.836-2.052c-0.136-0.728-0.416-1.416-0.828-2.048
	c-0.136-0.728-0.416-1.416-0.828-2.052c-0.136-0.732-0.416-1.416-0.824-2.056c-0.14-0.724-0.416-1.416-0.828-2.048
	c-0.14-0.728-0.416-1.416-0.828-2.056c-0.148-0.728-0.42-1.416-0.828-2.044c-0.148-0.736-0.42-1.416-0.836-2.056
	c-0.14-0.728-0.416-1.416-0.828-2.048c-0.14-0.728-0.416-1.416-0.828-2.056c-0.148-0.728-0.42-1.412-0.828-2.044
	c-0.14-0.728-0.416-1.416-0.828-2.056c-0.14-0.728-0.42-1.416-0.828-2.056c-0.148-0.728-0.42-1.416-0.828-2.048
	c-0.148-0.732-0.424-1.416-0.836-2.052c-0.14-0.728-0.416-1.416-0.828-2.048c-0.14-0.728-0.42-1.416-0.828-2.056
	c-0.148-0.728-0.42-1.412-0.828-2.044c-0.14-0.732-0.416-1.416-0.828-2.056c-0.144-0.732-0.42-1.416-0.828-2.048
	c-0.144-0.732-0.42-1.416-0.828-2.056c-0.144-0.732-0.42-1.416-0.836-2.052c-0.14-0.728-0.416-1.416-0.828-2.048
	c-0.14-0.728-0.416-1.416-0.828-2.056c-0.144-0.728-0.42-1.412-0.824-2.044c-0.144-0.732-0.416-1.416-0.832-2.056
	c-0.144-0.732-0.42-1.416-0.828-2.048c-0.144-0.732-0.42-1.416-0.832-2.06c-0.144-0.724-0.416-1.412-0.828-2.044
	c-0.144-0.728-0.416-1.416-0.828-2.052c-0.144-0.732-0.424-1.416-0.832-2.06c-0.14-0.724-0.42-1.408-0.824-2.04
	c-0.144-0.732-0.416-1.416-0.832-2.056c-0.14-0.732-0.42-1.416-0.828-2.052c-0.14-0.728-0.42-1.416-0.828-2.056
	c-0.148-0.724-0.42-1.412-0.828-2.044c-0.148-0.732-0.42-1.416-0.836-2.052c-0.14-0.732-0.416-1.416-0.828-2.052
	c-0.14-0.728-0.416-1.416-0.828-2.056c-0.148-0.724-0.42-1.412-0.828-2.04c-0.14-0.732-0.416-1.416-0.828-2.06
	c-0.14-0.728-0.42-1.416-0.828-2.056c-0.18-0.904-0.544-1.764-1.124-2.516c-0.984-1.26-2.4-2.072-3.984-2.264
	c-0.252-0.032-0.516-0.048-0.764-0.048c-1.964,0-3.66,1.016-4.752,2.516c-0.1-0.2-0.224-0.384-0.336-0.568
	c-0.148-0.744-0.424-1.424-0.828-2.052c-0.148-0.74-0.428-1.424-0.828-2.052c-0.148-0.74-0.428-1.424-0.828-2.052
	c-0.148-0.744-0.428-1.42-0.828-2.048c-0.156-0.744-0.432-1.428-0.836-2.056c-0.148-0.74-0.424-1.416-0.82-2.04
	c-0.148-0.748-0.428-1.432-0.836-2.06c-0.148-0.744-0.42-1.424-0.828-2.048c-0.148-0.744-0.428-1.428-0.828-2.056
	c-0.156-0.74-0.428-1.42-0.828-2.048c-0.152-0.74-0.428-1.424-0.828-2.052c-0.152-0.748-0.428-1.428-0.836-2.052
	c-0.144-0.744-0.42-1.42-0.82-2.044c-0.148-0.748-0.428-1.432-0.832-2.06c-0.148-0.74-0.424-1.424-0.828-2.048
	c-0.152-0.744-0.432-1.428-0.832-2.052c-0.148-0.744-0.428-1.424-0.828-2.052c-0.148-0.74-0.428-1.424-0.832-2.052
	c-0.144-0.744-0.424-1.42-0.828-2.048c-0.152-0.744-0.432-1.428-0.832-2.056c-0.148-0.74-0.428-1.416-0.82-2.04
	c-0.148-0.744-0.428-1.432-0.828-2.06c-0.156-0.744-0.436-1.428-0.836-2.052c-0.508-2.516-2.572-4.524-5.228-4.788
	c-0.204-0.02-0.412-0.028-0.6-0.028c-3.108,0-5.68,2.32-6,5.396l-9.872,98.736l-11.792,20.64c-0.116-0.264-0.244-0.536-0.38-0.784
	c-0.208-0.732-0.48-1.416-0.832-2.06c-0.212-0.724-0.476-1.408-0.828-2.044c-0.212-0.724-0.476-1.412-0.828-2.052
	c-0.212-0.732-0.476-1.416-0.832-2.06c-0.208-0.72-0.472-1.4-0.824-2.036c-0.212-0.728-0.476-1.416-0.828-2.064
	c-0.212-0.728-0.476-1.412-0.828-2.048c-0.212-0.728-0.484-1.416-0.836-2.056c-0.212-0.724-0.476-1.408-0.828-2.044
	c-0.212-0.732-0.476-1.416-0.828-2.06c-0.212-0.724-0.476-1.408-0.828-2.044c-0.212-0.728-0.484-1.416-0.836-2.056
	c-0.204-0.724-0.476-1.404-0.82-2.036c-0.212-0.732-0.476-1.416-0.836-2.064c-0.208-0.728-0.476-1.416-0.828-2.056
	c-1.36-4.736-5.992-7.88-11.024-7.14c-4.164,0.616-7.352,3.728-8.264,7.572c-1.492,1.904-5.352,5.472-9.844,9.22
	c-5.944-4.24-12.944-6.736-20.64-6.892c-1.112,0.024-2.204,0.12-3.284,0.256c-0.892,0.092-1.764,0.248-2.636,0.412
	c-0.012,0-0.024,0.004-0.036,0.004l0,0c-5.228,0.988-10.06,3.092-14.344,6.16c-4.364-3.636-8.076-7.08-9.632-9
	c-0.084-0.18-0.168-0.36-0.26-0.536c-1.032-3.664-4.12-6.596-8.152-7.196c-4.456-0.652-8.576,1.74-10.416,5.564
	c-0.132-0.296-0.3-0.552-0.472-0.82c-0.156-0.752-0.432-1.432-0.832-2.052c-0.156-0.752-0.428-1.432-0.828-2.044
	c-0.156-0.756-0.432-1.44-0.828-2.056c-0.156-0.752-0.428-1.436-0.828-2.052c-0.156-0.752-0.432-1.432-0.828-2.048
	c-0.156-0.752-0.432-1.44-0.832-2.056c-0.156-0.752-0.428-1.432-0.828-2.052c-0.156-0.752-0.432-1.432-0.832-2.052
	c-0.156-0.752-0.428-1.432-0.828-2.044c-0.156-0.752-0.432-1.44-0.832-2.056c-0.156-0.752-0.428-1.428-0.824-2.044
	c-0.156-0.756-0.432-1.44-0.832-2.056c-0.156-0.756-0.432-1.44-0.832-2.06c-0.156-0.752-0.428-1.428-0.828-2.048
	c-0.156-0.752-0.432-1.432-0.832-2.052c-0.156-0.752-0.428-1.432-0.828-2.044c-0.156-0.756-0.432-1.44-0.832-2.06
	c-0.156-0.752-0.428-1.424-0.824-2.04c-0.156-0.756-0.432-1.44-0.832-2.06c-0.156-0.752-0.428-1.432-0.828-2.048
	c-0.156-0.752-0.432-1.436-0.828-2.056c-0.156-0.752-0.432-1.436-0.832-2.052c-0.156-0.752-0.428-1.432-0.828-2.044
	c-0.156-0.756-0.432-1.44-0.832-2.06c-0.156-0.752-0.428-1.424-0.824-2.04c-0.156-0.76-0.432-1.444-0.832-2.06
	c-0.156-0.752-0.428-1.432-0.828-2.048c-0.156-0.752-0.432-1.436-0.832-2.056c-0.156-0.752-0.428-1.432-0.828-2.048
	c-0.156-0.752-0.432-1.436-0.828-2.048c-0.156-0.756-0.432-1.44-0.832-2.06c-0.156-0.752-0.428-1.424-0.824-2.04
	c-0.156-0.76-0.432-1.444-0.832-2.06c-0.156-0.752-0.428-1.432-0.828-2.048c-0.156-0.752-0.432-1.436-0.832-2.056
	c-0.156-0.752-0.428-1.432-0.828-2.048c-0.156-0.756-0.432-1.436-0.832-2.056c-0.156-0.752-0.428-1.428-0.828-2.044
	c-0.156-0.752-0.432-1.44-0.832-2.056c-0.156-0.752-0.428-1.428-0.824-2.044c-0.156-0.756-0.432-1.44-0.832-2.056
	c-0.156-0.752-0.432-1.436-0.832-2.056c-0.576-2.784-2.88-4.776-5.816-4.776c-0.2,0-0.404,0.008-0.572,0.024
	c-3.292,0.332-5.704,3.276-5.376,6.572l10,100.008c0.08,0.824,0.344,1.644,0.76,2.376l0.212,0.372
	c0.132,0.584,0.32,1.152,0.616,1.676l0.212,0.368c0.128,0.584,0.32,1.16,0.616,1.684l0.208,0.368c0.132,0.584,0.32,1.164,0.62,1.688
	l0.212,0.372c0.132,0.584,0.32,1.152,0.616,1.676l0.212,0.368c0.128,0.584,0.32,1.16,0.616,1.684l0.212,0.376
	c0.132,0.584,0.32,1.152,0.616,1.676l0.212,0.368c0.128,0.584,0.32,1.16,0.616,1.684l0.212,0.372
	c0.132,0.584,0.32,1.152,0.616,1.676l0.212,0.372c0.128,0.584,0.32,1.156,0.616,1.684l0.212,0.372
	c0.132,0.584,0.32,1.156,0.616,1.676l0.208,0.364c0.132,0.584,0.32,1.164,0.62,1.688l0.212,0.372
	c0.132,0.584,0.32,1.152,0.616,1.676l0.212,0.372c0.128,0.584,0.32,1.16,0.616,1.684l0.212,0.368c0.128,0.584,0.32,1.16,0.616,1.684
	l0.212,0.372c0.132,0.584,0.32,1.152,0.616,1.676l0.212,0.372c0.128,0.584,0.32,1.16,0.616,1.684l0.212,0.372
	c0.132,0.584,0.32,1.156,0.616,1.676l0.208,0.364c0.132,0.584,0.32,1.164,0.62,1.688l0.212,0.376
	c0.132,0.584,0.32,1.148,0.616,1.672l0.212,0.372c0.128,0.584,0.32,1.16,0.616,1.68l0.212,0.376c0.132,0.584,0.32,1.156,0.616,1.672
	l0.212,0.372c0.088,0.404,0.216,0.776,0.384,1.156l-9.116-5.208c-0.156-0.452-0.328-0.88-0.58-1.272
	c-0.152-0.748-0.428-1.42-0.828-2.044c-0.152-0.752-0.432-1.428-0.832-2.052c-0.152-0.752-0.428-1.428-0.828-2.048
	c-0.152-0.752-0.432-1.432-0.832-2.06c-0.152-0.752-0.428-1.42-0.828-2.044c-0.152-0.752-0.428-1.432-0.828-2.052
	c-0.152-0.752-0.428-1.428-0.828-2.048c-0.152-0.752-0.432-1.432-0.828-2.056c-0.152-0.752-0.432-1.428-0.832-2.052
	c-0.152-0.752-0.428-1.428-0.828-2.048c-0.152-0.752-0.432-1.432-0.832-2.06c-0.152-0.748-0.428-1.42-0.828-2.044
	c-0.152-0.752-0.432-1.432-0.832-2.052c-0.152-0.752-0.428-1.424-0.824-2.044c-0.152-0.752-0.432-1.432-0.832-2.06
	c-0.152-0.752-0.432-1.428-0.832-2.052c-0.152-0.752-0.428-1.428-0.828-2.048c-0.152-0.752-0.432-1.432-0.832-2.06
	c-0.152-0.748-0.428-1.42-0.828-2.044c-0.152-0.752-0.432-1.432-0.832-2.052c-0.152-0.752-0.428-1.424-0.824-2.044
	c-0.152-0.752-0.432-1.436-0.832-2.064c-0.152-0.748-0.428-1.42-0.828-2.044c-0.152-0.752-0.428-1.432-0.828-2.052
	c-0.152-0.752-0.432-1.432-0.832-2.06c-0.152-0.748-0.428-1.416-0.828-2.044c-0.152-0.752-0.432-1.432-0.832-2.052
	c-0.152-0.752-0.428-1.424-0.824-2.044c-0.152-0.752-0.432-1.436-0.832-2.064c-0.152-0.748-0.428-1.42-0.828-2.044
	c-0.152-0.752-0.432-1.432-0.832-2.052c-0.152-0.752-0.428-1.428-0.828-2.052c-0.152-0.752-0.428-1.428-0.828-2.052
	c-0.152-0.752-0.432-1.428-0.832-2.052c-0.152-0.752-0.428-1.42-0.824-2.044c-0.152-0.752-0.432-1.436-0.832-2.064
	c-0.152-0.748-0.428-1.42-0.828-2.044c-0.152-0.752-0.432-1.428-0.832-2.052c-0.152-0.752-0.428-1.428-0.828-2.048
	c-0.152-0.752-0.432-1.432-0.832-2.06c-0.152-0.748-0.428-1.42-0.828-2.044c-0.152-0.752-0.432-1.432-0.832-2.052
	c-0.152-0.752-0.428-1.424-0.824-2.048c-0.152-0.752-0.432-1.428-0.832-2.056c-0.152-0.752-0.432-1.428-0.832-2.052
	c-0.556-2.776-2.948-4.844-5.812-4.844c-0.252,0-0.504,0.016-0.756,0.048c-1.588,0.2-3.004,1.004-3.988,2.264
	s-1.416,2.836-1.22,4.42l10,80c0.116,0.928,0.452,1.808,0.956,2.576c0.16,0.732,0.42,1.424,0.828,2.044
	c0.16,0.732,0.42,1.424,0.824,2.044c0.16,0.744,0.42,1.44,0.832,2.064c0.16,0.736,0.42,1.428,0.828,2.048
	c0.16,0.736,0.42,1.428,0.832,2.056c0.16,0.736,0.42,1.428,0.828,2.048c0.16,0.74,0.42,1.436,0.832,2.06
	c0.16,0.732,0.42,1.424,0.828,2.044c0.16,0.74,0.42,1.432,0.832,2.056c0.16,0.736,0.416,1.42,0.824,2.04
	c0.16,0.744,0.42,1.436,0.832,2.072c0.16,0.728,0.42,1.42,0.828,2.04c0.16,0.74,0.42,1.432,0.828,2.056
	c0.16,0.744,0.42,1.436,0.832,2.06c0.156,0.716,0.412,1.404,0.808,2.004h-7.4c-1.6,0-3.108,0.62-4.244,1.752l-40,40
	c-2.024,2.028-2.188,5.096-0.704,7.416c0.14,0.732,0.416,1.404,0.828,2.052c0.14,0.728,0.416,1.404,0.828,2.048
	c0.14,0.736,0.416,1.416,0.832,2.06c0.14,0.732,0.416,1.404,0.828,2.052c0.14,0.732,0.416,1.408,0.832,2.052
	c0.14,0.732,0.416,1.404,0.828,2.048c0.14,0.74,0.416,1.412,0.832,2.06c0.14,0.732,0.416,1.404,0.828,2.048
	c0.14,0.732,0.416,1.408,0.832,2.052c0.14,0.732,0.416,1.404,0.824,2.044c0.14,0.736,0.416,1.416,0.832,2.064
	c0.14,0.732,0.416,1.404,0.828,2.048c0.14,0.736,0.416,1.408,0.828,2.052c0.14,0.74,0.416,1.416,0.832,2.052
	c0.14,0.74,0.416,1.412,0.828,2.056c0.14,0.732,0.416,1.408,0.832,2.052c0.14,0.732,0.416,1.404,0.824,2.044
	c0.14,0.74,0.416,1.416,0.832,2.064c0.14,0.732,0.416,1.404,0.828,2.048c0.14,0.736,0.416,1.408,0.832,2.056
	c0.14,0.732,0.416,1.404,0.828,2.048c0.14,0.736,0.416,1.412,0.828,2.056c0.14,0.736,0.416,1.408,0.832,2.056
	c0.14,0.728,0.416,1.4,0.824,2.04c0.14,0.736,0.416,1.416,0.832,2.064c0.14,0.736,0.416,1.408,0.828,2.048
	c0.14,0.736,0.416,1.408,0.832,2.056c0.092,0.476,0.184,0.944,0.396,1.4l-3.316,7.744c-0.812,1.896-0.568,3.976,0.476,5.592
	c0.148,0.736,0.424,1.416,0.824,2.048c0.148,0.728,0.424,1.416,0.824,2.048c0.148,0.732,0.428,1.424,0.832,2.064
	c0.152,0.736,0.428,1.416,0.828,2.048c0.148,0.736,0.428,1.424,0.832,2.056c0.152,0.732,0.428,1.416,0.828,2.048
	c0.148,0.732,0.428,1.428,0.832,2.06c0.152,0.732,0.428,1.416,0.828,2.044c0.148,0.736,0.428,1.424,0.832,2.06
	c0.148,0.724,0.424,1.416,0.824,2.036c0.148,0.736,0.428,1.428,0.832,2.072c0.148,0.728,0.424,1.416,0.824,2.04
	c0.148,0.732,0.428,1.42,0.828,2.056c0.148,0.736,0.428,1.428,0.832,2.064c0.148,0.728,0.424,1.416,0.824,2.04
	c0.148,0.736,0.428,1.424,0.832,2.06c0.148,0.732,0.424,1.416,0.82,2.036c0.148,0.736,0.428,1.432,0.832,2.072
	c0.152,0.728,0.428,1.416,0.828,2.044c0.148,0.736,0.428,1.424,0.832,2.056c0.152,0.732,0.428,1.416,0.828,2.052
	c0.148,0.728,0.428,1.416,0.828,2.052c0.148,0.732,0.428,1.424,0.832,2.056c0.148,0.732,0.424,1.416,0.824,2.044
	c0.148,0.732,0.428,1.424,0.832,2.064c0.148,0.728,0.424,1.416,0.824,2.044c0.148,0.74,0.428,1.424,0.832,2.06
	c0.148,0.732,0.424,1.416,0.824,2.048c0.148,0.732,0.428,1.424,0.832,2.056c0.148,0.736,0.424,1.416,0.824,2.048
	c0.148,0.728,0.424,1.416,0.824,2.048c0.148,0.732,0.428,1.424,0.832,2.064c0.152,0.736,0.428,1.416,0.828,2.044
	c0.148,0.74,0.428,1.428,0.832,2.06c0.152,0.732,0.428,1.416,0.828,2.048c0.148,0.732,0.428,1.428,0.832,2.056
	c0.152,0.736,0.428,1.416,0.828,2.048c0.148,0.732,0.424,1.416,0.828,2.048c0.148,0.732,0.428,1.42,0.828,2.056
	c0.148,0.736,0.428,1.42,0.828,2.056c0.148,0.736,0.428,1.424,0.832,2.056c0.148,0.732,0.424,1.416,0.824,2.048
	c0.148,0.736,0.428,1.428,0.832,2.056c0.148,0.736,0.424,1.416,0.824,2.048c0.148,0.736,0.428,1.424,0.832,2.06
	c0.1,0.496,0.344,0.94,0.564,1.396c29.984,12.324,62.796,19.164,97.224,19.164C347.72,512,428.132,463.736,473.336,391.252z"/>
<g>
	<path style="fill:#242424;" d="M235.992,236c-2.088,0-4.208-0.656-6.004-2.016c-25.4-19.132-24.484-25.328-23.876-29.444
		c0.8-5.452,5.848-9.244,11.348-8.432c4.168,0.612,7.352,3.728,8.272,7.572c2.176,2.772,9.356,9.108,16.288,14.336
		c4.416,3.32,5.292,9.588,1.972,14.008C242.016,234.632,239.028,236,235.992,236z"/>
	<path style="fill:#242424;" d="M126,402c-0.82,0-1.604-0.164-2.344-0.48c-3.056-1.312-4.472-4.848-3.168-7.888l30-70.004
		c0.46-1.076,1.212-1.972,2.18-2.616L196.184,292h-47.7l-38.244,38.244c-1.136,1.132-2.64,1.756-4.244,1.756
		s-3.108-0.624-4.244-1.756c-2.336-2.336-2.336-6.14,0-8.484l40-40c1.136-1.124,2.64-1.752,4.244-1.752h47.412l-50.388-28.792
		c-1.632-0.928-2.744-2.596-2.976-4.468l-10-80c-0.196-1.584,0.236-3.156,1.22-4.42c0.984-1.256,2.4-2.068,3.988-2.264
		c0.252-0.032,0.504-0.048,0.756-0.048c3.012,0,5.568,2.256,5.944,5.252l9.632,77.024l48.288,27.584l-29.084-50.896
		c-0.416-0.732-0.68-1.552-0.76-2.376l-10-100.008c-0.328-3.288,2.084-6.24,5.376-6.572c0.168-0.016,0.372-0.024,0.572-0.024
		c3.164,0,5.684,2.264,5.996,5.396l9.872,98.736l39.264,68.728l0.488,0.972l0.332,1.2l0.068,1.028l-0.124,1.124l-0.344,1.128
		l-0.304,0.604l-0.252,0.416l-0.596,0.72l-0.116,0.164l-0.112,0.092h-0.232l-0.904,0.892l-58.204,38.792l-29.296,68.376
		C130.568,400.58,128.408,402,126,402z"/>
	<path style="fill:#242424;" d="M386,402c-2.408,0-4.572-1.42-5.512-3.628l-29.296-68.376l-58.2-38.788l-0.9-0.888h-0.232
		l-0.848-0.996l-0.548-1.02l-0.344-1.14l-0.116-1.28l0.132-1.18l0.368-1.14l0.32-0.572l0.072-0.156l39.252-68.708l9.872-98.736
		c0.312-3.076,2.9-5.396,6-5.396c0.204,0,0.408,0.008,0.592,0.028c3.264,0.328,5.68,3.272,5.352,6.568l-10,100
		c-0.084,0.828-0.352,1.648-0.756,2.38l-29.084,50.9l48.288-27.588l9.632-77.024c0.376-3,2.92-5.252,5.932-5.252
		c0.252,0,0.508,0.016,0.76,0.048c1.584,0.2,3,1.004,3.984,2.264s1.416,2.836,1.22,4.42l-10,80c-0.236,1.872-1.344,3.54-2.968,4.468
		L318.592,280h47.412c1.596,0,3.104,0.624,4.248,1.752l40,40c2.336,2.344,2.336,6.148,0,8.484c-1.14,1.132-2.64,1.756-4.248,1.756
		s-3.104-0.624-4.248-1.756l-38.248-38.244h-47.692L359.328,321c0.972,0.648,1.728,1.556,2.184,2.62l30,69.996
		c1.304,3.048-0.112,6.584-3.156,7.888C387.6,401.836,386.82,402,386,402z"/>
	<path style="fill:#242424;" d="M276.008,236c-3.036,0-6.024-1.368-8-3.984c-3.32-4.416-2.436-10.688,1.972-14.008
		c6.932-5.228,14.112-11.564,16.284-14.336c0.916-3.844,4.096-6.952,8.268-7.572c5.488-0.804,10.552,2.984,11.356,8.432
		c0.596,4.116,1.524,10.312-23.884,29.444C280.22,235.344,278.1,236,276.008,236z"/>
</g>
<path style="fill:#992B1F;" d="M256,396c-0.136,0-0.272,0-0.42-0.016c-16.904-0.704-31.876-9.124-42.168-23.72
	c-12.56-17.812-16.904-43.008-10.8-62.672c5.4-24.14,8.896-37.656,13.388-46.244V256c-0.196-28.008,16.916-49.532,39.796-50
	c23.276,0.468,40.38,21.992,40.204,50.056v7.232c6.124,11.124,9.084,25.46,11.72,38.244c0.624,3.016,1.248,5.984,1.876,8.836
	c5.908,18.908,1.572,44.084-10.992,61.916c-10.288,14.584-25.268,23.736-42.172,23.736C256.272,396,256.136,396,256,396z"/>
<path style="fill:#8C271C;" d="M309.592,310.36c-0.64-2.852-1.252-5.82-1.876-8.836c-2.64-12.772-5.6-27.108-11.728-38.244v-7.232
	c0.176-28.064-16.928-49.584-40.204-50.056c-2.04,0.044-4.012,0.308-5.952,0.672c20.116,3.744,34.32,23.82,34.16,49.384v7.232
	c6.12,11.124,9.084,25.46,11.724,38.244c0.62,3.016,1.244,5.984,1.876,8.836c5.904,18.9,1.568,44.084-10.992,61.908
	c-8.948,12.696-21.44,21.244-35.664,23.256c1.536,0.196,3.068,0.4,4.64,0.46c0.156,0.016,0.292,0.016,0.428,0.016
	c0.136,0,0.272,0,0.42,0c16.904,0,31.884-9.14,42.176-23.736C311.156,354.444,315.492,329.256,309.592,310.36z"/>
<path style="fill:#E78244;" d="M255.796,276c14.976,0,28.82-4.752,40.204-12.756v-7.184c0.176-28.064-16.928-49.584-40.204-50.056
	C232.916,206.468,215.804,227.992,216,256v7.36c-0.02,0.04-0.048,0.1-0.068,0.14C227.248,271.36,240.972,276,255.796,276z"/>
<path style="fill:#D97A40;" d="M249.876,206.668c-0.012,0-0.02,0.004-0.032,0.004c20.116,3.748,34.316,23.82,34.156,49.384v7.232
	c0.964,1.752,1.828,3.6,2.644,5.504c3.268-1.612,6.404-3.464,9.356-5.552v-7.184c0.176-28.064-16.928-49.584-40.204-50.056
	c-1.112,0.024-2.2,0.136-3.284,0.252C251.624,206.368,250.748,206.504,249.876,206.668z"/>
<g>
	<circle style="fill:#242424;" cx="231.84" cy="236" r="4"/>
	<circle style="fill:#242424;" cx="280.08" cy="236" r="4"/>
	<circle style="fill:#242424;" cx="245.2" cy="225" r="8"/>
	<circle style="fill:#242424;" cx="266.72" cy="225" r="8"/>
</g>
<path style="fill:#E6E6E6;" d="M267.868,328.168h-7.832v-5.832c0-2.212-1.784-4-4-4c-2.208,0-4,1.788-4,4v5.832h-7.832
	c-2.212,0-4,1.788-4,4c0,2.208,1.788,4,4,4h7.832v21.836c0,2.216,1.792,4,4,4c2.216,0,4-1.784,4-4v-21.836h7.832
	c2.212,0,4-1.792,4-4C271.868,329.956,270.08,328.168,267.868,328.168z"/>
<g>
</g>
<g>
</g>
<g>
</g>
<g>
</g>
<g>
</g>
<g>
</g>
<g>
</g>
<g>
</g>
<g>
</g>
<g>
</g>
<g>
</g>
<g>
</g>
<g>
</g>
<g>
</g>
<g>
</g>
</svg>
